<?xml version="1.0" standalone="no"?>
<!DOCTYPE svg PUBLIC "-//W3C//DTD SVG 20010904//EN"
 "http://www.w3.org/TR/2001/REC-SVG-20010904/DTD/svg10.dtd">
<svg version="1.0" xmlns="http://www.w3.org/2000/svg"
 width="1500.000000pt" height="1500.000000pt" viewBox="0 0 1500.000000 1500.000000"
 preserveAspectRatio="xMidYMid meet">

<g transform="translate(0.000000,1500.000000) scale(0.100000,-0.100000)"
fill="#000000" stroke="none">
<path d="M1710 14573 c-513 -55 -979 -404 -1180 -886 -84 -202 -110 -342 -106
-582 5 -310 74 -530 248 -792 68 -102 200 -236 2368 -2410 1262 -1267 2300
-2315 2307 -2330 15 -35 16 -118 2 -146 -6 -12 -1041 -1052 -2299 -2312 -1519
-1521 -2306 -2315 -2342 -2365 -237 -326 -331 -704 -273 -1094 94 -632 586
-1125 1220 -1222 124 -20 392 -13 505 11 192 42 388 129 550 243 79 56 478
449 2390 2356 1389 1385 2308 2294 2327 2302 38 17 116 18 146 4 12 -6 1059
-1050 2327 -2319 2161 -2165 2311 -2313 2405 -2375 257 -167 514 -247 805
-249 250 -1 435 42 672 159 53 26 95 40 107 37 17 -4 21 0 22 18 1 21 2 20 9
-6 l8 -30 1 31 c2 46 81 98 81 53 0 -6 -3 -8 -7 -6 -5 3 -9 -7 -10 -21 l-1
-27 14 28 c8 15 12 36 9 46 -4 15 8 29 53 62 68 51 202 202 273 309 97 145
173 326 211 503 30 143 34 401 9 542 -40 219 -136 440 -270 619 -59 80 -548
576 -2354 2386 -1615 1618 -2285 2297 -2298 2325 -23 50 -23 80 0 130 13 29
670 691 2307 2325 1634 1630 2308 2309 2352 2369 76 103 169 285 211 410 53
163 65 245 66 456 0 163 -3 205 -23 294 -100 448 -376 807 -772 1006 -225 113
-383 149 -650 149 -267 0 -425 -36 -650 -149 -220 -111 -106 -2 -2575 -2464
-1259 -1256 -2303 -2292 -2320 -2302 -34 -21 -123 -26 -158 -8 -12 6 -1050
1038 -2307 2294 -1617 1616 -2309 2300 -2368 2343 -209 154 -449 251 -692 281
-79 10 -272 12 -350 4z m456 -121 c213 -50 401 -141 569 -275 28 -22 1076
-1065 2330 -2318 1795 -1794 2290 -2282 2325 -2298 64 -29 160 -28 225 3 42
19 443 414 2345 2312 1859 1854 2312 2301 2385 2353 167 118 370 203 565 237
129 22 398 15 515 -15 473 -118 840 -453 989 -901 46 -141 66 -267 66 -425 0
-287 -78 -536 -244 -780 -52 -77 -389 -417 -2362 -2388 -1820 -1817 -2307
-2307 -2324 -2345 -31 -65 -31 -162 0 -228 18 -40 461 -487 2300 -2329 2180
-2183 2339 -2346 2432 -2491 84 -131 156 -324 184 -493 23 -140 15 -388 -16
-511 -54 -219 -139 -388 -279 -562 -64 -80 -197 -205 -212 -201 -5 2 -9 -1 -9
-6 0 -14 -118 -92 -147 -97 -33 -6 -45 -13 -38 -23 6 -11 -116 -65 -229 -102
-135 -44 -252 -62 -411 -62 -217 0 -388 38 -582 128 -219 102 -69 -42 -2578
2473 -1903 1907 -2309 2309 -2350 2328 -69 33 -161 33 -230 0 -42 -19 -447
-418 -2350 -2317 -2473 -2467 -2355 -2354 -2563 -2458 -102 -51 -189 -83 -307
-113 -79 -20 -116 -23 -295 -23 -190 0 -213 2 -310 27 -209 53 -370 133 -539
268 -235 187 -394 440 -473 755 -20 79 -23 116 -23 295 0 219 8 277 62 440 36
106 122 271 194 371 45 62 658 681 2359 2384 2175 2178 2298 2303 2310 2348
18 69 8 166 -23 219 -14 24 -1031 1051 -2309 2333 -1393 1397 -2303 2317
-2334 2360 -182 249 -264 501 -264 805 0 332 103 614 319 872 199 237 499 409
810 464 117 20 402 13 517 -14z"/>
<path d="M13918 855 c-6 -7 2 -54 11 -59 3 -2 6 11 6 30 0 32 -5 41 -17 29z"/>
<path d="M13671 834 c0 -11 3 -14 6 -6 3 7 2 16 -1 19 -3 4 -6 -2 -5 -13z"/>
<path d="M13745 841 c-4 -7 0 -8 11 -4 14 5 16 2 12 -21 -4 -18 -2 -24 4 -18
12 12 7 44 -9 49 -6 2 -14 -1 -18 -6z"/>
<path d="M13870 829 c0 -5 5 -7 10 -4 6 3 10 8 10 11 0 2 -4 4 -10 4 -5 0 -10
-5 -10 -11z"/>
<path d="M13661 794 c0 -11 3 -14 6 -6 3 7 2 16 -1 19 -3 4 -6 -2 -5 -13z"/>
<path d="M13690 690 c-8 -5 -12 -11 -10 -14 3 -2 14 2 24 10 22 15 10 19 -14
4z"/>
<path d="M14455 841 c-3 -6 0 -8 9 -5 9 4 16 -2 19 -18 5 -23 5 -23 4 1 -2 26
-21 39 -32 22z"/>
<path d="M14197 825 c-4 -8 -3 -16 1 -19 4 -3 9 4 9 15 2 23 -3 25 -10 4z"/>
<path d="M14368 808 c-10 -10 -14 -18 -9 -18 10 0 36 29 30 34 -2 1 -12 -6
-21 -16z"/>
<path d="M14521 804 c0 -11 3 -14 6 -6 3 7 2 16 -1 19 -3 4 -6 -2 -5 -13z"/>
<path d="M14400 800 c-13 -8 -12 -10 3 -10 9 0 17 5 17 10 0 12 -1 12 -20 0z"/>
<path d="M14170 681 c0 -5 9 -7 20 -4 11 3 20 7 20 9 0 2 -9 4 -20 4 -11 0
-20 -4 -20 -9z"/>
<path d="M14468 683 c7 -3 16 -2 19 1 4 3 -2 6 -13 5 -11 0 -14 -3 -6 -6z"/>
<path d="M14403 673 c9 -2 23 -2 30 0 6 3 -1 5 -18 5 -16 0 -22 -2 -12 -5z"/>
<path d="M14016 625 c-3 -8 -1 -15 4 -15 6 0 10 7 10 15 0 8 -2 15 -4 15 -2 0
-6 -7 -10 -15z"/>
<path d="M14727 618 c-10 -11 -17 -22 -14 -24 2 -2 12 5 22 16 23 26 16 33 -8
8z"/>
<path d="M14042 605 c0 -16 2 -22 5 -12 2 9 2 23 0 30 -3 6 -5 -1 -5 -18z"/>
<path d="M14269 615 c-8 -9 -35 -19 -60 -24 -32 -6 -36 -9 -16 -10 33 -1 97
24 97 38 0 14 -3 14 -21 -4z"/>
<path d="M13990 586 c0 -8 4 -17 9 -20 5 -4 7 3 4 14 -6 23 -13 26 -13 6z"/>
<path d="M14435 590 l-30 -8 27 -1 c15 0 30 4 33 9 3 6 5 9 3 9 -2 -1 -16 -5
-33 -9z"/>
<path d="M13870 573 c0 -12 8 -27 18 -32 14 -7 19 -6 19 4 0 7 -7 11 -15 7 -9
-3 -13 -1 -9 4 3 6 2 16 -4 24 -7 12 -9 10 -9 -7z"/>
<path d="M14621 574 c0 -11 3 -14 6 -6 3 7 2 16 -1 19 -3 4 -6 -2 -5 -13z"/>
<path d="M13821 548 c-2 -30 -42 -58 -85 -59 -32 -2 -35 -3 -12 -6 15 -3 39
-2 52 1 27 7 58 49 51 68 -4 8 -6 7 -6 -4z"/>
<path d="M13928 538 c6 -6 18 -8 28 -6 14 3 12 5 -9 10 -19 3 -25 2 -19 -4z"/>
<path d="M14032 520 c-6 -11 -26 -24 -44 -29 -18 -5 -25 -10 -16 -10 25 -1 66
19 73 37 8 22 1 24 -13 2z"/>
<path d="M14162 515 c0 -16 2 -22 5 -12 2 9 2 23 0 30 -3 6 -5 -1 -5 -18z"/>
<path d="M14498 515 c-3 -14 -1 -25 3 -25 5 0 9 11 9 25 0 14 -2 25 -4 25 -2
0 -6 -11 -8 -25z"/>
<path d="M13975 519 c-4 -6 -24 -8 -49 -5 l-41 5 37 -10 c30 -9 41 -8 60 5 12
9 17 16 11 16 -7 0 -15 -5 -18 -11z"/>
<path d="M14610 511 c0 -6 -17 -12 -37 -14 l-38 -4 43 -1 c31 -2 42 2 42 13 0
8 -2 15 -5 15 -3 0 -5 -4 -5 -9z"/>
<path d="M14368 483 c18 -2 45 -2 60 0 15 2 0 4 -33 4 -33 0 -45 -2 -27 -4z"/>
<path d="M14123 473 c9 -2 23 -2 30 0 6 3 -1 5 -18 5 -16 0 -22 -2 -12 -5z"/>
<path d="M14698 473 c6 -2 18 -2 25 0 6 3 1 5 -13 5 -14 0 -19 -2 -12 -5z"/>
<path d="M13800 435 c-7 -9 -10 -18 -6 -22 3 -3 6 -1 6 5 0 6 15 16 33 21 30
9 30 9 6 10 -15 1 -32 -6 -39 -14z"/>
<path d="M13656 411 c-12 -13 -16 -30 -13 -53 l4 -33 1 36 c2 38 14 54 47 62
19 4 19 5 -1 6 -11 0 -29 -8 -38 -18z"/>
<path d="M13719 413 c-13 -16 -12 -17 4 -4 9 7 17 15 17 17 0 8 -8 3 -21 -13z"/>
<path d="M13820 415 c-7 -9 -11 -17 -9 -20 3 -2 10 5 17 15 14 24 10 26 -8 5z"/>
<path d="M13957 423 c-2 -5 -5 -34 -5 -65 -1 -49 1 -58 16 -58 9 0 27 -3 40
-6 13 -4 22 -2 22 5 0 6 -15 11 -34 11 l-34 0 4 60 c2 57 0 69 -9 53z"/>
<path d="M14278 423 c7 -3 16 -2 19 1 4 3 -2 6 -13 5 -11 0 -14 -3 -6 -6z"/>
<path d="M13879 408 c-5 -16 -4 -46 2 -42 4 2 7 13 6 24 -1 17 -5 26 -8 18z"/>
<path d="M14407 368 c8 -44 13 -48 13 -10 0 17 -4 34 -10 37 -6 4 -7 -6 -3
-27z"/>
<path d="M14738 393 c6 -2 18 -2 25 0 6 3 1 5 -13 5 -14 0 -19 -2 -12 -5z"/>
<path d="M14066 360 c3 -14 13 -31 22 -37 19 -15 58 -17 67 -3 4 6 -5 8 -22 5
-32 -6 -44 0 -61 35 l-12 25 6 -25z"/>
<path d="M13791 353 c-1 -13 8 -27 20 -34 16 -8 20 -8 17 1 -2 6 -8 11 -13 10
-6 -1 -13 9 -17 22 -6 23 -6 23 -7 1z"/>
<path d="M13901 354 c0 -11 3 -14 6 -6 3 7 2 16 -1 19 -3 4 -6 -2 -5 -13z"/>
<path d="M14181 354 c0 -11 3 -14 6 -6 3 7 2 16 -1 19 -3 4 -6 -2 -5 -13z"/>
<path d="M13855 329 c-11 -16 -1 -19 13 -3 7 8 8 14 3 14 -5 0 -13 -5 -16 -11z"/>
<path d="M13875 310 c-16 -17 -16 -20 -3 -15 9 4 19 13 22 21 7 19 2 18 -19
-6z"/>
<path d="M14158 308 c-10 -10 -14 -18 -9 -18 10 0 36 29 30 34 -2 1 -12 -6
-21 -16z"/>
<path d="M14272 305 c0 -16 2 -22 5 -12 2 9 2 23 0 30 -3 6 -5 -1 -5 -18z"/>
<path d="M13720 311 c0 -5 -10 -12 -22 -14 -22 -4 -22 -4 -2 -6 12 0 27 6 34
14 9 10 9 15 1 15 -6 0 -11 -4 -11 -9z"/>
<path d="M13737 295 c-29 -26 -28 -32 2 -15 10 5 21 16 25 25 7 19 6 19 -27
-10z"/>
<path d="M14739 293 c-13 -16 -12 -17 4 -4 16 13 21 21 13 21 -2 0 -10 -8 -17
-17z"/>
<path d="M14350 285 c-14 -8 -20 -14 -14 -15 5 0 19 7 30 15 24 18 16 19 -16
0z"/>
<path d="M14573 283 c9 -2 23 -2 30 0 6 3 -1 5 -18 5 -16 0 -22 -2 -12 -5z"/>
<path d="M13973 273 c9 -2 25 -2 35 0 9 3 1 5 -18 5 -19 0 -27 -2 -17 -5z"/>
<path d="M14698 273 c7 -3 16 -2 19 1 4 3 -2 6 -13 5 -11 0 -14 -3 -6 -6z"/>
<path d="M14290 240 c0 -5 -30 -11 -67 -13 l-68 -3 73 -2 c58 -2 72 1 72 13 0
8 -2 15 -5 15 -3 0 -5 -4 -5 -10z"/>
</g>
</svg>
